<?xml version="1.0" encoding="UTF-8" standalone="no"?>
<!DOCTYPE svg PUBLIC "-//W3C//DTD SVG 1.1//EN"
 "http://www.w3.org/Graphics/SVG/1.1/DTD/svg11.dtd">
<!-- Generated by graphviz version 2.38.0 (20140413.2041)
 -->
<!-- Title: %3 Pages: 1 -->
<svg width="1482pt" height="556pt"
 viewBox="0.00 0.00 1482.00 556.00" xmlns="http://www.w3.org/2000/svg" xmlns:xlink="http://www.w3.org/1999/xlink">
<g id="graph0" class="graph" transform="scale(1 1) rotate(0) translate(4 552)">
<title>%3</title>
<polygon fill="white" stroke="none" points="-4,4 -4,-552 1478,-552 1478,4 -4,4"/>
<!-- Program -->
<g id="node1" class="node"><title>Program</title>
<polygon fill="none" stroke="black" points="317.5,-511.5 317.5,-547.5 381.5,-547.5 381.5,-511.5 317.5,-511.5"/>
<text text-anchor="middle" x="349.5" y="-525.8" font-family="Times,serif" font-size="14.00">Program</text>
</g>
<!-- node1 -->
<g id="node2" class="node"><title>node1</title>
<polygon fill="none" stroke="black" points="123.5,-438.5 123.5,-474.5 177.5,-474.5 177.5,-438.5 123.5,-438.5"/>
<text text-anchor="middle" x="150.5" y="-452.8" font-family="Times,serif" font-size="14.00">Decl</text>
</g>
<!-- Program&#45;&gt;node1 -->
<g id="edge6" class="edge"><title>Program&#45;&gt;node1</title>
<path fill="none" stroke="black" d="M317.084,-516.935C281.497,-504.238 224.479,-483.895 187.255,-470.613"/>
<polygon fill="black" stroke="black" points="188.373,-467.297 177.779,-467.233 186.021,-473.89 188.373,-467.297"/>
</g>
<!-- node7 -->
<g id="node8" class="node"><title>node7</title>
<polygon fill="none" stroke="black" points="322.5,-438.5 322.5,-474.5 376.5,-474.5 376.5,-438.5 322.5,-438.5"/>
<text text-anchor="middle" x="349.5" y="-452.8" font-family="Times,serif" font-size="14.00">Decl</text>
</g>
<!-- Program&#45;&gt;node7 -->
<g id="edge12" class="edge"><title>Program&#45;&gt;node7</title>
<path fill="none" stroke="black" d="M349.5,-511.313C349.5,-503.289 349.5,-493.547 349.5,-484.569"/>
<polygon fill="black" stroke="black" points="353,-484.529 349.5,-474.529 346,-484.529 353,-484.529"/>
</g>
<!-- node13 -->
<g id="node14" class="node"><title>node13</title>
<polygon fill="none" stroke="black" points="502,-438.5 502,-474.5 579,-474.5 579,-438.5 502,-438.5"/>
<text text-anchor="middle" x="540.5" y="-452.8" font-family="Times,serif" font-size="14.00">WhileStmt</text>
</g>
<!-- Program&#45;&gt;node13 -->
<g id="edge51" class="edge"><title>Program&#45;&gt;node13</title>
<path fill="none" stroke="black" d="M381.901,-516.456C412.156,-505.209 457.706,-488.277 492.24,-475.439"/>
<polygon fill="black" stroke="black" points="493.513,-478.7 501.667,-471.935 491.074,-472.139 493.513,-478.7"/>
</g>
<!-- node2 -->
<g id="node3" class="node"><title>node2</title>
<polygon fill="none" stroke="black" points="0,-365.5 0,-401.5 67,-401.5 67,-365.5 0,-365.5"/>
<text text-anchor="middle" x="33.5" y="-379.8" font-family="Times,serif" font-size="14.00">Identifier</text>
</g>
<!-- node1&#45;&gt;node2 -->
<g id="edge1" class="edge"><title>node1&#45;&gt;node2</title>
<path fill="none" stroke="black" d="M123.364,-439.033C107.613,-429.474 87.5549,-417.303 70.3868,-406.884"/>
<polygon fill="black" stroke="black" points="72.0754,-403.815 61.7106,-401.619 68.4438,-409.799 72.0754,-403.815"/>
</g>
<!-- node4 -->
<g id="node5" class="node"><title>node4</title>
<polygon fill="none" stroke="black" points="85.5,-365.5 85.5,-401.5 139.5,-401.5 139.5,-365.5 85.5,-365.5"/>
<text text-anchor="middle" x="112.5" y="-379.8" font-family="Times,serif" font-size="14.00">=</text>
</g>
<!-- node1&#45;&gt;node4 -->
<g id="edge3" class="edge"><title>node1&#45;&gt;node4</title>
<path fill="none" stroke="black" d="M141.301,-438.313C136.82,-429.941 131.338,-419.697 126.363,-410.403"/>
<polygon fill="black" stroke="black" points="129.419,-408.694 121.614,-401.529 123.247,-411.997 129.419,-408.694"/>
</g>
<!-- node5 -->
<g id="node6" class="node"><title>node5</title>
<polygon fill="none" stroke="black" points="158,-365.5 158,-401.5 219,-401.5 219,-365.5 158,-365.5"/>
<text text-anchor="middle" x="188.5" y="-379.8" font-family="Times,serif" font-size="14.00">Primary</text>
</g>
<!-- node1&#45;&gt;node5 -->
<g id="edge5" class="edge"><title>node1&#45;&gt;node5</title>
<path fill="none" stroke="black" d="M159.699,-438.313C164.18,-429.941 169.662,-419.697 174.637,-410.403"/>
<polygon fill="black" stroke="black" points="177.753,-411.997 179.386,-401.529 171.581,-408.694 177.753,-411.997"/>
</g>
<!-- node3 -->
<g id="node4" class="node"><title>node3</title>
<polygon fill="none" stroke="black" points="6.5,-292.5 6.5,-328.5 60.5,-328.5 60.5,-292.5 6.5,-292.5"/>
<text text-anchor="middle" x="33.5" y="-306.8" font-family="Times,serif" font-size="14.00">a</text>
</g>
<!-- node2&#45;&gt;node3 -->
<g id="edge2" class="edge"><title>node2&#45;&gt;node3</title>
<path fill="none" stroke="black" d="M33.5,-365.313C33.5,-357.289 33.5,-347.547 33.5,-338.569"/>
<polygon fill="black" stroke="black" points="37.0001,-338.529 33.5,-328.529 30.0001,-338.529 37.0001,-338.529"/>
</g>
<!-- node6 -->
<g id="node7" class="node"><title>node6</title>
<polygon fill="none" stroke="black" points="161.5,-292.5 161.5,-328.5 215.5,-328.5 215.5,-292.5 161.5,-292.5"/>
<text text-anchor="middle" x="188.5" y="-306.8" font-family="Times,serif" font-size="14.00">0</text>
</g>
<!-- node5&#45;&gt;node6 -->
<g id="edge4" class="edge"><title>node5&#45;&gt;node6</title>
<path fill="none" stroke="black" d="M188.5,-365.313C188.5,-357.289 188.5,-347.547 188.5,-338.569"/>
<polygon fill="black" stroke="black" points="192,-338.529 188.5,-328.529 185,-338.529 192,-338.529"/>
</g>
<!-- node8 -->
<g id="node9" class="node"><title>node8</title>
<polygon fill="none" stroke="black" points="237,-365.5 237,-401.5 304,-401.5 304,-365.5 237,-365.5"/>
<text text-anchor="middle" x="270.5" y="-379.8" font-family="Times,serif" font-size="14.00">Identifier</text>
</g>
<!-- node7&#45;&gt;node8 -->
<g id="edge7" class="edge"><title>node7&#45;&gt;node8</title>
<path fill="none" stroke="black" d="M330.376,-438.313C320.381,-429.33 307.99,-418.193 297.077,-408.386"/>
<polygon fill="black" stroke="black" points="299.225,-405.61 289.448,-401.529 294.546,-410.816 299.225,-405.61"/>
</g>
<!-- node10 -->
<g id="node11" class="node"><title>node10</title>
<polygon fill="none" stroke="black" points="322.5,-365.5 322.5,-401.5 376.5,-401.5 376.5,-365.5 322.5,-365.5"/>
<text text-anchor="middle" x="349.5" y="-379.8" font-family="Times,serif" font-size="14.00">=</text>
</g>
<!-- node7&#45;&gt;node10 -->
<g id="edge9" class="edge"><title>node7&#45;&gt;node10</title>
<path fill="none" stroke="black" d="M349.5,-438.313C349.5,-430.289 349.5,-420.547 349.5,-411.569"/>
<polygon fill="black" stroke="black" points="353,-411.529 349.5,-401.529 346,-411.529 353,-411.529"/>
</g>
<!-- node11 -->
<g id="node12" class="node"><title>node11</title>
<polygon fill="none" stroke="black" points="395,-365.5 395,-401.5 456,-401.5 456,-365.5 395,-365.5"/>
<text text-anchor="middle" x="425.5" y="-379.8" font-family="Times,serif" font-size="14.00">Primary</text>
</g>
<!-- node7&#45;&gt;node11 -->
<g id="edge11" class="edge"><title>node7&#45;&gt;node11</title>
<path fill="none" stroke="black" d="M367.897,-438.313C377.513,-429.33 389.434,-418.193 399.932,-408.386"/>
<polygon fill="black" stroke="black" points="402.354,-410.913 407.272,-401.529 397.575,-405.798 402.354,-410.913"/>
</g>
<!-- node9 -->
<g id="node10" class="node"><title>node9</title>
<polygon fill="none" stroke="black" points="243.5,-292.5 243.5,-328.5 297.5,-328.5 297.5,-292.5 243.5,-292.5"/>
<text text-anchor="middle" x="270.5" y="-306.8" font-family="Times,serif" font-size="14.00">b</text>
</g>
<!-- node8&#45;&gt;node9 -->
<g id="edge8" class="edge"><title>node8&#45;&gt;node9</title>
<path fill="none" stroke="black" d="M270.5,-365.313C270.5,-357.289 270.5,-347.547 270.5,-338.569"/>
<polygon fill="black" stroke="black" points="274,-338.529 270.5,-328.529 267,-338.529 274,-338.529"/>
</g>
<!-- node12 -->
<g id="node13" class="node"><title>node12</title>
<polygon fill="none" stroke="black" points="361.5,-292.5 361.5,-328.5 415.5,-328.5 415.5,-292.5 361.5,-292.5"/>
<text text-anchor="middle" x="388.5" y="-306.8" font-family="Times,serif" font-size="14.00">1</text>
</g>
<!-- node11&#45;&gt;node12 -->
<g id="edge10" class="edge"><title>node11&#45;&gt;node12</title>
<path fill="none" stroke="black" d="M416.543,-365.313C412.18,-356.941 406.842,-346.697 401.999,-337.403"/>
<polygon fill="black" stroke="black" points="405.099,-335.779 397.374,-328.529 398.892,-339.014 405.099,-335.779"/>
</g>
<!-- node14 -->
<g id="node15" class="node"><title>node14</title>
<polygon fill="none" stroke="black" points="511.5,-365.5 511.5,-401.5 569.5,-401.5 569.5,-365.5 511.5,-365.5"/>
<text text-anchor="middle" x="540.5" y="-379.8" font-family="Times,serif" font-size="14.00">BinExp</text>
</g>
<!-- node13&#45;&gt;node14 -->
<g id="edge19" class="edge"><title>node13&#45;&gt;node14</title>
<path fill="none" stroke="black" d="M540.5,-438.313C540.5,-430.289 540.5,-420.547 540.5,-411.569"/>
<polygon fill="black" stroke="black" points="544,-411.529 540.5,-401.529 537,-411.529 544,-411.529"/>
</g>
<!-- node21 -->
<g id="node22" class="node"><title>node21</title>
<polygon fill="none" stroke="black" points="789.5,-365.5 789.5,-401.5 843.5,-401.5 843.5,-365.5 789.5,-365.5"/>
<text text-anchor="middle" x="816.5" y="-379.8" font-family="Times,serif" font-size="14.00">Block</text>
</g>
<!-- node13&#45;&gt;node21 -->
<g id="edge50" class="edge"><title>node13&#45;&gt;node21</title>
<path fill="none" stroke="black" d="M579.167,-445.553C632.298,-431.885 727.217,-407.468 779.472,-394.025"/>
<polygon fill="black" stroke="black" points="780.516,-397.371 789.329,-391.49 778.772,-390.591 780.516,-397.371"/>
</g>
<!-- node15 -->
<g id="node16" class="node"><title>node15</title>
<polygon fill="none" stroke="black" points="434,-292.5 434,-328.5 495,-328.5 495,-292.5 434,-292.5"/>
<text text-anchor="middle" x="464.5" y="-306.8" font-family="Times,serif" font-size="14.00">Primary</text>
</g>
<!-- node14&#45;&gt;node15 -->
<g id="edge15" class="edge"><title>node14&#45;&gt;node15</title>
<path fill="none" stroke="black" d="M522.103,-365.313C512.487,-356.33 500.566,-345.193 490.068,-335.386"/>
<polygon fill="black" stroke="black" points="492.425,-332.798 482.728,-328.529 487.646,-337.913 492.425,-332.798"/>
</g>
<!-- node18 -->
<g id="node19" class="node"><title>node18</title>
<polygon fill="none" stroke="black" points="513.5,-292.5 513.5,-328.5 567.5,-328.5 567.5,-292.5 513.5,-292.5"/>
<text text-anchor="middle" x="540.5" y="-306.8" font-family="Times,serif" font-size="14.00">&lt;</text>
</g>
<!-- node14&#45;&gt;node18 -->
<g id="edge16" class="edge"><title>node14&#45;&gt;node18</title>
<path fill="none" stroke="black" d="M540.5,-365.313C540.5,-357.289 540.5,-347.547 540.5,-338.569"/>
<polygon fill="black" stroke="black" points="544,-338.529 540.5,-328.529 537,-338.529 544,-338.529"/>
</g>
<!-- node19 -->
<g id="node20" class="node"><title>node19</title>
<polygon fill="none" stroke="black" points="586,-292.5 586,-328.5 647,-328.5 647,-292.5 586,-292.5"/>
<text text-anchor="middle" x="616.5" y="-306.8" font-family="Times,serif" font-size="14.00">Primary</text>
</g>
<!-- node14&#45;&gt;node19 -->
<g id="edge18" class="edge"><title>node14&#45;&gt;node19</title>
<path fill="none" stroke="black" d="M558.897,-365.313C568.513,-356.33 580.434,-345.193 590.932,-335.386"/>
<polygon fill="black" stroke="black" points="593.354,-337.913 598.272,-328.529 588.575,-332.798 593.354,-337.913"/>
</g>
<!-- node16 -->
<g id="node17" class="node"><title>node16</title>
<polygon fill="none" stroke="black" points="431,-219.5 431,-255.5 498,-255.5 498,-219.5 431,-219.5"/>
<text text-anchor="middle" x="464.5" y="-233.8" font-family="Times,serif" font-size="14.00">Identifier</text>
</g>
<!-- node15&#45;&gt;node16 -->
<g id="edge13" class="edge"><title>node15&#45;&gt;node16</title>
<path fill="none" stroke="black" d="M464.5,-292.313C464.5,-284.289 464.5,-274.547 464.5,-265.569"/>
<polygon fill="black" stroke="black" points="468,-265.529 464.5,-255.529 461,-265.529 468,-265.529"/>
</g>
<!-- node17 -->
<g id="node18" class="node"><title>node17</title>
<polygon fill="none" stroke="black" points="437.5,-146.5 437.5,-182.5 491.5,-182.5 491.5,-146.5 437.5,-146.5"/>
<text text-anchor="middle" x="464.5" y="-160.8" font-family="Times,serif" font-size="14.00">a</text>
</g>
<!-- node16&#45;&gt;node17 -->
<g id="edge14" class="edge"><title>node16&#45;&gt;node17</title>
<path fill="none" stroke="black" d="M464.5,-219.313C464.5,-211.289 464.5,-201.547 464.5,-192.569"/>
<polygon fill="black" stroke="black" points="468,-192.529 464.5,-182.529 461,-192.529 468,-192.529"/>
</g>
<!-- node20 -->
<g id="node21" class="node"><title>node20</title>
<polygon fill="none" stroke="black" points="552.5,-219.5 552.5,-255.5 606.5,-255.5 606.5,-219.5 552.5,-219.5"/>
<text text-anchor="middle" x="579.5" y="-233.8" font-family="Times,serif" font-size="14.00">10000</text>
</g>
<!-- node19&#45;&gt;node20 -->
<g id="edge17" class="edge"><title>node19&#45;&gt;node20</title>
<path fill="none" stroke="black" d="M607.543,-292.313C603.18,-283.941 597.842,-273.697 592.999,-264.403"/>
<polygon fill="black" stroke="black" points="596.099,-262.779 588.374,-255.529 589.892,-266.014 596.099,-262.779"/>
</g>
<!-- node22 -->
<g id="node23" class="node"><title>node22</title>
<polygon fill="none" stroke="black" points="684,-292.5 684,-328.5 753,-328.5 753,-292.5 684,-292.5"/>
<text text-anchor="middle" x="718.5" y="-306.8" font-family="Times,serif" font-size="14.00">PrintStmt</text>
</g>
<!-- node21&#45;&gt;node22 -->
<g id="edge23" class="edge"><title>node21&#45;&gt;node22</title>
<path fill="none" stroke="black" d="M792.777,-365.313C780.017,-356.069 764.108,-344.543 750.291,-334.532"/>
<polygon fill="black" stroke="black" points="752.156,-331.562 742.005,-328.529 748.049,-337.23 752.156,-331.562"/>
</g>
<!-- node26 -->
<g id="node27" class="node"><title>node26</title>
<polygon fill="none" stroke="black" points="789.5,-292.5 789.5,-328.5 843.5,-328.5 843.5,-292.5 789.5,-292.5"/>
<text text-anchor="middle" x="816.5" y="-306.8" font-family="Times,serif" font-size="14.00">Decl</text>
</g>
<!-- node21&#45;&gt;node26 -->
<g id="edge30" class="edge"><title>node21&#45;&gt;node26</title>
<path fill="none" stroke="black" d="M816.5,-365.313C816.5,-357.289 816.5,-347.547 816.5,-338.569"/>
<polygon fill="black" stroke="black" points="820,-338.529 816.5,-328.529 813,-338.529 820,-338.529"/>
</g>
<!-- node33 -->
<g id="node34" class="node"><title>node33</title>
<polygon fill="none" stroke="black" points="987.5,-292.5 987.5,-328.5 1041.5,-328.5 1041.5,-292.5 987.5,-292.5"/>
<text text-anchor="middle" x="1014.5" y="-306.8" font-family="Times,serif" font-size="14.00">Assign</text>
</g>
<!-- node21&#45;&gt;node33 -->
<g id="edge37" class="edge"><title>node21&#45;&gt;node33</title>
<path fill="none" stroke="black" d="M843.616,-372.777C878.325,-360.33 938.611,-338.713 977.512,-324.763"/>
<polygon fill="black" stroke="black" points="979.163,-327.89 987.395,-321.22 976.8,-321.3 979.163,-327.89"/>
</g>
<!-- node40 -->
<g id="node41" class="node"><title>node40</title>
<polygon fill="none" stroke="black" points="1224.5,-292.5 1224.5,-328.5 1278.5,-328.5 1278.5,-292.5 1224.5,-292.5"/>
<text text-anchor="middle" x="1251.5" y="-306.8" font-family="Times,serif" font-size="14.00">Assign</text>
</g>
<!-- node21&#45;&gt;node40 -->
<g id="edge49" class="edge"><title>node21&#45;&gt;node40</title>
<path fill="none" stroke="black" d="M843.711,-378.059C918.703,-365.819 1128.46,-331.582 1214.23,-317.583"/>
<polygon fill="black" stroke="black" points="1214.99,-321.005 1224.3,-315.94 1213.87,-314.096 1214.99,-321.005"/>
</g>
<!-- node23 -->
<g id="node24" class="node"><title>node23</title>
<polygon fill="none" stroke="black" points="625,-219.5 625,-255.5 686,-255.5 686,-219.5 625,-219.5"/>
<text text-anchor="middle" x="655.5" y="-233.8" font-family="Times,serif" font-size="14.00">Primary</text>
</g>
<!-- node22&#45;&gt;node23 -->
<g id="edge22" class="edge"><title>node22&#45;&gt;node23</title>
<path fill="none" stroke="black" d="M703.249,-292.313C695.511,-283.592 685.971,-272.84 677.458,-263.246"/>
<polygon fill="black" stroke="black" points="679.865,-260.686 670.61,-255.529 674.629,-265.332 679.865,-260.686"/>
</g>
<!-- node24 -->
<g id="node25" class="node"><title>node24</title>
<polygon fill="none" stroke="black" points="622,-146.5 622,-182.5 689,-182.5 689,-146.5 622,-146.5"/>
<text text-anchor="middle" x="655.5" y="-160.8" font-family="Times,serif" font-size="14.00">Identifier</text>
</g>
<!-- node23&#45;&gt;node24 -->
<g id="edge20" class="edge"><title>node23&#45;&gt;node24</title>
<path fill="none" stroke="black" d="M655.5,-219.313C655.5,-211.289 655.5,-201.547 655.5,-192.569"/>
<polygon fill="black" stroke="black" points="659,-192.529 655.5,-182.529 652,-192.529 659,-192.529"/>
</g>
<!-- node25 -->
<g id="node26" class="node"><title>node25</title>
<polygon fill="none" stroke="black" points="628.5,-73.5 628.5,-109.5 682.5,-109.5 682.5,-73.5 628.5,-73.5"/>
<text text-anchor="middle" x="655.5" y="-87.8" font-family="Times,serif" font-size="14.00">a</text>
</g>
<!-- node24&#45;&gt;node25 -->
<g id="edge21" class="edge"><title>node24&#45;&gt;node25</title>
<path fill="none" stroke="black" d="M655.5,-146.313C655.5,-138.289 655.5,-128.547 655.5,-119.569"/>
<polygon fill="black" stroke="black" points="659,-119.529 655.5,-109.529 652,-119.529 659,-119.529"/>
</g>
<!-- node27 -->
<g id="node28" class="node"><title>node27</title>
<polygon fill="none" stroke="black" points="704,-219.5 704,-255.5 771,-255.5 771,-219.5 704,-219.5"/>
<text text-anchor="middle" x="737.5" y="-233.8" font-family="Times,serif" font-size="14.00">Identifier</text>
</g>
<!-- node26&#45;&gt;node27 -->
<g id="edge24" class="edge"><title>node26&#45;&gt;node27</title>
<path fill="none" stroke="black" d="M797.376,-292.313C787.381,-283.33 774.99,-272.193 764.077,-262.386"/>
<polygon fill="black" stroke="black" points="766.225,-259.61 756.448,-255.529 761.546,-264.816 766.225,-259.61"/>
</g>
<!-- node29 -->
<g id="node30" class="node"><title>node29</title>
<polygon fill="none" stroke="black" points="789.5,-219.5 789.5,-255.5 843.5,-255.5 843.5,-219.5 789.5,-219.5"/>
<text text-anchor="middle" x="816.5" y="-233.8" font-family="Times,serif" font-size="14.00">=</text>
</g>
<!-- node26&#45;&gt;node29 -->
<g id="edge26" class="edge"><title>node26&#45;&gt;node29</title>
<path fill="none" stroke="black" d="M816.5,-292.313C816.5,-284.289 816.5,-274.547 816.5,-265.569"/>
<polygon fill="black" stroke="black" points="820,-265.529 816.5,-255.529 813,-265.529 820,-265.529"/>
</g>
<!-- node30 -->
<g id="node31" class="node"><title>node30</title>
<polygon fill="none" stroke="black" points="862,-219.5 862,-255.5 923,-255.5 923,-219.5 862,-219.5"/>
<text text-anchor="middle" x="892.5" y="-233.8" font-family="Times,serif" font-size="14.00">Primary</text>
</g>
<!-- node26&#45;&gt;node30 -->
<g id="edge29" class="edge"><title>node26&#45;&gt;node30</title>
<path fill="none" stroke="black" d="M834.897,-292.313C844.513,-283.33 856.434,-272.193 866.932,-262.386"/>
<polygon fill="black" stroke="black" points="869.354,-264.913 874.272,-255.529 864.575,-259.798 869.354,-264.913"/>
</g>
<!-- node28 -->
<g id="node29" class="node"><title>node28</title>
<polygon fill="none" stroke="black" points="710.5,-146.5 710.5,-182.5 764.5,-182.5 764.5,-146.5 710.5,-146.5"/>
<text text-anchor="middle" x="737.5" y="-160.8" font-family="Times,serif" font-size="14.00">temp</text>
</g>
<!-- node27&#45;&gt;node28 -->
<g id="edge25" class="edge"><title>node27&#45;&gt;node28</title>
<path fill="none" stroke="black" d="M737.5,-219.313C737.5,-211.289 737.5,-201.547 737.5,-192.569"/>
<polygon fill="black" stroke="black" points="741,-192.529 737.5,-182.529 734,-192.529 741,-192.529"/>
</g>
<!-- node31 -->
<g id="node32" class="node"><title>node31</title>
<polygon fill="none" stroke="black" points="859,-146.5 859,-182.5 926,-182.5 926,-146.5 859,-146.5"/>
<text text-anchor="middle" x="892.5" y="-160.8" font-family="Times,serif" font-size="14.00">Identifier</text>
</g>
<!-- node30&#45;&gt;node31 -->
<g id="edge27" class="edge"><title>node30&#45;&gt;node31</title>
<path fill="none" stroke="black" d="M892.5,-219.313C892.5,-211.289 892.5,-201.547 892.5,-192.569"/>
<polygon fill="black" stroke="black" points="896,-192.529 892.5,-182.529 889,-192.529 896,-192.529"/>
</g>
<!-- node32 -->
<g id="node33" class="node"><title>node32</title>
<polygon fill="none" stroke="black" points="865.5,-73.5 865.5,-109.5 919.5,-109.5 919.5,-73.5 865.5,-73.5"/>
<text text-anchor="middle" x="892.5" y="-87.8" font-family="Times,serif" font-size="14.00">a</text>
</g>
<!-- node31&#45;&gt;node32 -->
<g id="edge28" class="edge"><title>node31&#45;&gt;node32</title>
<path fill="none" stroke="black" d="M892.5,-146.313C892.5,-138.289 892.5,-128.547 892.5,-119.569"/>
<polygon fill="black" stroke="black" points="896,-119.529 892.5,-109.529 889,-119.529 896,-119.529"/>
</g>
<!-- node34 -->
<g id="node35" class="node"><title>node34</title>
<polygon fill="none" stroke="black" points="941,-219.5 941,-255.5 1008,-255.5 1008,-219.5 941,-219.5"/>
<text text-anchor="middle" x="974.5" y="-233.8" font-family="Times,serif" font-size="14.00">Identifier</text>
</g>
<!-- node33&#45;&gt;node34 -->
<g id="edge31" class="edge"><title>node33&#45;&gt;node34</title>
<path fill="none" stroke="black" d="M1004.82,-292.313C1000.1,-283.941 994.329,-273.697 989.093,-264.403"/>
<polygon fill="black" stroke="black" points="992.052,-262.523 984.094,-255.529 985.953,-265.959 992.052,-262.523"/>
</g>
<!-- node36 -->
<g id="node37" class="node"><title>node36</title>
<polygon fill="none" stroke="black" points="1026.5,-219.5 1026.5,-255.5 1080.5,-255.5 1080.5,-219.5 1026.5,-219.5"/>
<text text-anchor="middle" x="1053.5" y="-233.8" font-family="Times,serif" font-size="14.00">=</text>
</g>
<!-- node33&#45;&gt;node36 -->
<g id="edge33" class="edge"><title>node33&#45;&gt;node36</title>
<path fill="none" stroke="black" d="M1023.94,-292.313C1028.54,-283.941 1034.17,-273.697 1039.27,-264.403"/>
<polygon fill="black" stroke="black" points="1042.4,-265.979 1044.15,-255.529 1036.26,-262.609 1042.4,-265.979"/>
</g>
<!-- node37 -->
<g id="node38" class="node"><title>node37</title>
<polygon fill="none" stroke="black" points="1099,-219.5 1099,-255.5 1160,-255.5 1160,-219.5 1099,-219.5"/>
<text text-anchor="middle" x="1129.5" y="-233.8" font-family="Times,serif" font-size="14.00">Primary</text>
</g>
<!-- node33&#45;&gt;node37 -->
<g id="edge36" class="edge"><title>node33&#45;&gt;node37</title>
<path fill="none" stroke="black" d="M1041.75,-292.674C1057,-283.263 1076.2,-271.404 1092.76,-261.183"/>
<polygon fill="black" stroke="black" points="1094.97,-263.93 1101.64,-255.698 1091.3,-257.974 1094.97,-263.93"/>
</g>
<!-- node35 -->
<g id="node36" class="node"><title>node35</title>
<polygon fill="none" stroke="black" points="947.5,-146.5 947.5,-182.5 1001.5,-182.5 1001.5,-146.5 947.5,-146.5"/>
<text text-anchor="middle" x="974.5" y="-160.8" font-family="Times,serif" font-size="14.00">a</text>
</g>
<!-- node34&#45;&gt;node35 -->
<g id="edge32" class="edge"><title>node34&#45;&gt;node35</title>
<path fill="none" stroke="black" d="M974.5,-219.313C974.5,-211.289 974.5,-201.547 974.5,-192.569"/>
<polygon fill="black" stroke="black" points="978,-192.529 974.5,-182.529 971,-192.529 978,-192.529"/>
</g>
<!-- node38 -->
<g id="node39" class="node"><title>node38</title>
<polygon fill="none" stroke="black" points="1096,-146.5 1096,-182.5 1163,-182.5 1163,-146.5 1096,-146.5"/>
<text text-anchor="middle" x="1129.5" y="-160.8" font-family="Times,serif" font-size="14.00">Identifier</text>
</g>
<!-- node37&#45;&gt;node38 -->
<g id="edge34" class="edge"><title>node37&#45;&gt;node38</title>
<path fill="none" stroke="black" d="M1129.5,-219.313C1129.5,-211.289 1129.5,-201.547 1129.5,-192.569"/>
<polygon fill="black" stroke="black" points="1133,-192.529 1129.5,-182.529 1126,-192.529 1133,-192.529"/>
</g>
<!-- node39 -->
<g id="node40" class="node"><title>node39</title>
<polygon fill="none" stroke="black" points="1102.5,-73.5 1102.5,-109.5 1156.5,-109.5 1156.5,-73.5 1102.5,-73.5"/>
<text text-anchor="middle" x="1129.5" y="-87.8" font-family="Times,serif" font-size="14.00">b</text>
</g>
<!-- node38&#45;&gt;node39 -->
<g id="edge35" class="edge"><title>node38&#45;&gt;node39</title>
<path fill="none" stroke="black" d="M1129.5,-146.313C1129.5,-138.289 1129.5,-128.547 1129.5,-119.569"/>
<polygon fill="black" stroke="black" points="1133,-119.529 1129.5,-109.529 1126,-119.529 1133,-119.529"/>
</g>
<!-- node41 -->
<g id="node42" class="node"><title>node41</title>
<polygon fill="none" stroke="black" points="1178,-219.5 1178,-255.5 1245,-255.5 1245,-219.5 1178,-219.5"/>
<text text-anchor="middle" x="1211.5" y="-233.8" font-family="Times,serif" font-size="14.00">Identifier</text>
</g>
<!-- node40&#45;&gt;node41 -->
<g id="edge38" class="edge"><title>node40&#45;&gt;node41</title>
<path fill="none" stroke="black" d="M1241.82,-292.313C1237.1,-283.941 1231.33,-273.697 1226.09,-264.403"/>
<polygon fill="black" stroke="black" points="1229.05,-262.523 1221.09,-255.529 1222.95,-265.959 1229.05,-262.523"/>
</g>
<!-- node43 -->
<g id="node44" class="node"><title>node43</title>
<polygon fill="none" stroke="black" points="1263.5,-219.5 1263.5,-255.5 1317.5,-255.5 1317.5,-219.5 1263.5,-219.5"/>
<text text-anchor="middle" x="1290.5" y="-233.8" font-family="Times,serif" font-size="14.00">=</text>
</g>
<!-- node40&#45;&gt;node43 -->
<g id="edge40" class="edge"><title>node40&#45;&gt;node43</title>
<path fill="none" stroke="black" d="M1260.94,-292.313C1265.54,-283.941 1271.17,-273.697 1276.27,-264.403"/>
<polygon fill="black" stroke="black" points="1279.4,-265.979 1281.15,-255.529 1273.26,-262.609 1279.4,-265.979"/>
</g>
<!-- node44 -->
<g id="node45" class="node"><title>node44</title>
<polygon fill="none" stroke="black" points="1335.5,-219.5 1335.5,-255.5 1393.5,-255.5 1393.5,-219.5 1335.5,-219.5"/>
<text text-anchor="middle" x="1364.5" y="-233.8" font-family="Times,serif" font-size="14.00">BinExp</text>
</g>
<!-- node40&#45;&gt;node44 -->
<g id="edge48" class="edge"><title>node40&#45;&gt;node44</title>
<path fill="none" stroke="black" d="M1278.57,-292.494C1293.55,-283.079 1312.37,-271.255 1328.57,-261.075"/>
<polygon fill="black" stroke="black" points="1330.66,-263.897 1337.26,-255.614 1326.93,-257.97 1330.66,-263.897"/>
</g>
<!-- node42 -->
<g id="node43" class="node"><title>node42</title>
<polygon fill="none" stroke="black" points="1184.5,-146.5 1184.5,-182.5 1238.5,-182.5 1238.5,-146.5 1184.5,-146.5"/>
<text text-anchor="middle" x="1211.5" y="-160.8" font-family="Times,serif" font-size="14.00">b</text>
</g>
<!-- node41&#45;&gt;node42 -->
<g id="edge39" class="edge"><title>node41&#45;&gt;node42</title>
<path fill="none" stroke="black" d="M1211.5,-219.313C1211.5,-211.289 1211.5,-201.547 1211.5,-192.569"/>
<polygon fill="black" stroke="black" points="1215,-192.529 1211.5,-182.529 1208,-192.529 1215,-192.529"/>
</g>
<!-- node45 -->
<g id="node46" class="node"><title>node45</title>
<polygon fill="none" stroke="black" points="1258,-146.5 1258,-182.5 1319,-182.5 1319,-146.5 1258,-146.5"/>
<text text-anchor="middle" x="1288.5" y="-160.8" font-family="Times,serif" font-size="14.00">Primary</text>
</g>
<!-- node44&#45;&gt;node45 -->
<g id="edge43" class="edge"><title>node44&#45;&gt;node45</title>
<path fill="none" stroke="black" d="M1346.1,-219.313C1336.49,-210.33 1324.57,-199.193 1314.07,-189.386"/>
<polygon fill="black" stroke="black" points="1316.42,-186.798 1306.73,-182.529 1311.65,-191.913 1316.42,-186.798"/>
</g>
<!-- node48 -->
<g id="node49" class="node"><title>node48</title>
<polygon fill="none" stroke="black" points="1337.5,-146.5 1337.5,-182.5 1391.5,-182.5 1391.5,-146.5 1337.5,-146.5"/>
<text text-anchor="middle" x="1364.5" y="-160.8" font-family="Times,serif" font-size="14.00">+</text>
</g>
<!-- node44&#45;&gt;node48 -->
<g id="edge44" class="edge"><title>node44&#45;&gt;node48</title>
<path fill="none" stroke="black" d="M1364.5,-219.313C1364.5,-211.289 1364.5,-201.547 1364.5,-192.569"/>
<polygon fill="black" stroke="black" points="1368,-192.529 1364.5,-182.529 1361,-192.529 1368,-192.529"/>
</g>
<!-- node49 -->
<g id="node50" class="node"><title>node49</title>
<polygon fill="none" stroke="black" points="1410,-146.5 1410,-182.5 1471,-182.5 1471,-146.5 1410,-146.5"/>
<text text-anchor="middle" x="1440.5" y="-160.8" font-family="Times,serif" font-size="14.00">Primary</text>
</g>
<!-- node44&#45;&gt;node49 -->
<g id="edge47" class="edge"><title>node44&#45;&gt;node49</title>
<path fill="none" stroke="black" d="M1382.9,-219.313C1392.51,-210.33 1404.43,-199.193 1414.93,-189.386"/>
<polygon fill="black" stroke="black" points="1417.35,-191.913 1422.27,-182.529 1412.58,-186.798 1417.35,-191.913"/>
</g>
<!-- node46 -->
<g id="node47" class="node"><title>node46</title>
<polygon fill="none" stroke="black" points="1255,-73.5 1255,-109.5 1322,-109.5 1322,-73.5 1255,-73.5"/>
<text text-anchor="middle" x="1288.5" y="-87.8" font-family="Times,serif" font-size="14.00">Identifier</text>
</g>
<!-- node45&#45;&gt;node46 -->
<g id="edge41" class="edge"><title>node45&#45;&gt;node46</title>
<path fill="none" stroke="black" d="M1288.5,-146.313C1288.5,-138.289 1288.5,-128.547 1288.5,-119.569"/>
<polygon fill="black" stroke="black" points="1292,-119.529 1288.5,-109.529 1285,-119.529 1292,-119.529"/>
</g>
<!-- node47 -->
<g id="node48" class="node"><title>node47</title>
<polygon fill="none" stroke="black" points="1261.5,-0.5 1261.5,-36.5 1315.5,-36.5 1315.5,-0.5 1261.5,-0.5"/>
<text text-anchor="middle" x="1288.5" y="-14.8" font-family="Times,serif" font-size="14.00">temp</text>
</g>
<!-- node46&#45;&gt;node47 -->
<g id="edge42" class="edge"><title>node46&#45;&gt;node47</title>
<path fill="none" stroke="black" d="M1288.5,-73.3129C1288.5,-65.2895 1288.5,-55.5475 1288.5,-46.5691"/>
<polygon fill="black" stroke="black" points="1292,-46.5288 1288.5,-36.5288 1285,-46.5289 1292,-46.5288"/>
</g>
<!-- node50 -->
<g id="node51" class="node"><title>node50</title>
<polygon fill="none" stroke="black" points="1407,-73.5 1407,-109.5 1474,-109.5 1474,-73.5 1407,-73.5"/>
<text text-anchor="middle" x="1440.5" y="-87.8" font-family="Times,serif" font-size="14.00">Identifier</text>
</g>
<!-- node49&#45;&gt;node50 -->
<g id="edge45" class="edge"><title>node49&#45;&gt;node50</title>
<path fill="none" stroke="black" d="M1440.5,-146.313C1440.5,-138.289 1440.5,-128.547 1440.5,-119.569"/>
<polygon fill="black" stroke="black" points="1444,-119.529 1440.5,-109.529 1437,-119.529 1444,-119.529"/>
</g>
<!-- node51 -->
<g id="node52" class="node"><title>node51</title>
<polygon fill="none" stroke="black" points="1413.5,-0.5 1413.5,-36.5 1467.5,-36.5 1467.5,-0.5 1413.5,-0.5"/>
<text text-anchor="middle" x="1440.5" y="-14.8" font-family="Times,serif" font-size="14.00">b</text>
</g>
<!-- node50&#45;&gt;node51 -->
<g id="edge46" class="edge"><title>node50&#45;&gt;node51</title>
<path fill="none" stroke="black" d="M1440.5,-73.3129C1440.5,-65.2895 1440.5,-55.5475 1440.5,-46.5691"/>
<polygon fill="black" stroke="black" points="1444,-46.5288 1440.5,-36.5288 1437,-46.5289 1444,-46.5288"/>
</g>
</g>
</svg>
